<?xml version="1.0" standalone="no"?>
<!DOCTYPE svg PUBLIC "-//W3C//DTD SVG 20010904//EN"
 "http://www.w3.org/TR/2001/REC-SVG-20010904/DTD/svg10.dtd">
<svg version="1.0" xmlns="http://www.w3.org/2000/svg"
 width="512.000000pt" height="512.000000pt" viewBox="0 0 512.000000 512.000000"
 preserveAspectRatio="xMidYMid meet">

<g transform="translate(0.000000,512.000000) scale(0.100000,-0.100000)"
fill="#000000" stroke="none">
<path d="M2945 5104 c-608 -94 -1156 -569 -1458 -1264 -96 -221 -178 -503
-212 -727 -20 -135 -27 -153 -60 -153 -103 0 -347 177 -461 335 -46 63 -110
194 -131 265 -20 70 -44 103 -87 124 -68 32 -152 11 -190 -46 -41 -62 -142
-512 -173 -768 -24 -200 -24 -604 1 -785 43 -322 113 -558 241 -820 77 -159
173 -312 272 -435 81 -99 268 -281 371 -359 317 -240 720 -397 1162 -453 153
-19 533 -16 690 5 947 131 1693 703 1955 1499 176 538 127 1119 -150 1745
-112 253 -341 639 -408 688 -20 14 -44 20 -81 20 -72 0 -115 -33 -146 -112
-37 -93 -137 -284 -178 -338 -60 -80 -72 -76 -174 58 -242 317 -418 774 -468
1217 -29 251 -36 271 -104 304 -40 19 -89 19 -211 0z m19 -366 c11 -96 62
-340 96 -461 65 -225 170 -469 287 -666 69 -115 220 -318 265 -356 85 -72 210
-100 314 -71 113 32 189 104 282 263 21 34 39 63 42 63 3 0 35 -55 72 -123
342 -628 433 -1247 258 -1769 -229 -686 -857 -1167 -1690 -1295 -161 -24 -530
-24 -690 0 -614 96 -1083 383 -1393 852 -315 478 -424 1101 -316 1799 l22 140
40 -50 c69 -85 189 -193 278 -253 264 -177 460 -199 606 -66 79 70 101 122
133 313 16 92 40 210 54 262 167 640 536 1145 1001 1369 116 56 256 104 321
110 7 1 14 -25 18 -61z"/>
<path d="M3841 2458 c-19 -12 -44 -36 -55 -51 -21 -28 -21 -38 -24 -586 l-2
-557 23 -43 c30 -58 76 -84 140 -78 57 5 95 30 119 78 17 31 18 80 18 587 0
449 -3 559 -14 586 -31 75 -140 109 -205 64z"/>
<path d="M1172 2460 c-18 -4 -45 -18 -59 -31 -54 -52 -53 -34 -53 -632 l0
-554 23 -34 c12 -19 38 -42 57 -51 107 -54 220 27 220 158 l0 49 103 -103 c56
-57 109 -107 117 -112 27 -17 113 -11 147 10 54 32 79 100 62 164 -9 33 -41
71 -165 197 l-154 155 120 98 c66 54 129 109 139 123 72 90 -2 233 -120 233
-51 0 -76 -14 -174 -95 l-70 -57 -5 188 c-4 167 -7 193 -25 224 -33 56 -100
84 -163 70z"/>
<path d="M2208 2125 c-252 -64 -417 -305 -379 -555 49 -323 396 -519 685 -387
60 28 140 96 162 138 30 59 8 150 -46 189 -63 45 -136 34 -211 -30 -70 -60
-173 -47 -243 30 -32 35 -56 92 -56 130 0 71 63 158 136 186 55 21 101 15 178
-21 88 -41 154 -26 210 48 27 37 27 117 -1 155 -74 100 -282 156 -435 117z"/>
<path d="M3111 2060 c-115 -24 -251 -121 -308 -218 -63 -107 -80 -255 -44
-371 26 -84 60 -137 125 -199 127 -121 313 -161 468 -102 l49 19 36 -25 c65
-44 155 -23 200 45 23 34 23 36 23 396 0 360 0 362 -23 396 -45 68 -135 89
-200 45 l-36 -25 -51 20 c-60 23 -177 32 -239 19z m159 -312 c65 -34 85 -67
85 -143 0 -48 -5 -70 -21 -92 -24 -33 -97 -73 -134 -73 -41 0 -113 42 -138 80
-20 29 -23 45 -20 93 3 36 12 67 24 85 24 32 98 72 134 72 14 0 46 -10 70 -22z"/>
</g>
</svg>
