<?xml version="1.0" standalone="no"?>
<!DOCTYPE svg PUBLIC "-//W3C//DTD SVG 20010904//EN"
 "http://www.w3.org/TR/2001/REC-SVG-20010904/DTD/svg10.dtd">
<svg version="1.0" xmlns="http://www.w3.org/2000/svg"
 width="512.000000pt" height="512.000000pt" viewBox="0 0 512.000000 512.000000"
 preserveAspectRatio="xMidYMid meet">

<g transform="translate(0.000000,512.000000) scale(0.100000,-0.100000)"
fill="#000000" stroke="none">
<path d="M2350 5104 c-245 -28 -423 -65 -599 -124 -766 -257 -1369 -864 -1622
-1632 -88 -265 -124 -490 -123 -768 1 -508 144 -1018 399 -1424 226 -361 570
-672 953 -865 932 -469 2098 -342 2877 312 554 466 877 1193 879 1977 1 389
-83 744 -259 1099 -379 762 -1084 1277 -1925 1406 -100 16 -498 29 -580 19z
m555 -313 c356 -63 670 -196 983 -418 48 -34 103 -76 122 -92 l35 -30 -201
-203 c-111 -112 -207 -213 -213 -225 -16 -32 -13 -111 6 -143 34 -58 122 -85
190 -59 15 6 119 101 230 211 l202 202 22 -19 c33 -31 152 -192 214 -290 220
-350 341 -808 321 -1224 -31 -673 -331 -1282 -841 -1709 -709 -594 -1768 -666
-2580 -175 -93 57 -315 219 -315 231 0 4 81 88 181 187 225 224 239 242 239
309 0 80 -34 124 -113 147 -71 20 -97 2 -320 -219 -177 -176 -210 -205 -220
-192 -7 9 -33 43 -59 76 -332 428 -518 986 -494 1477 22 455 175 877 451 1246
391 522 970 860 1596 930 135 15 426 6 564 -18z"/>
<path d="M2513 4259 c-69 -20 -251 -257 -338 -442 -68 -144 -96 -251 -102
-393 l-6 -121 -46 14 c-148 46 -402 79 -466 62 -46 -13 -93 -62 -101 -106 -23
-125 37 -435 121 -618 l34 -75 -27 0 c-37 0 -88 -33 -112 -72 -25 -41 -26
-130 -5 -268 62 -410 240 -694 520 -830 120 -58 197 -78 328 -87 l97 -6 0
-181 c0 -152 3 -187 18 -216 53 -107 211 -107 264 0 15 29 18 64 18 216 l0
181 98 6 c455 29 762 361 847 917 21 138 20 227 -5 268 -24 39 -75 72 -112 72
l-27 0 34 74 c83 183 144 495 121 619 -8 44 -55 93 -101 106 -66 18 -309 -15
-466 -62 l-46 -14 -6 121 c-6 146 -35 253 -107 401 -98 201 -263 414 -338 435
-42 11 -46 11 -89 -1z m94 -446 c121 -189 171 -411 129 -569 -20 -74 -70 -164
-127 -226 l-49 -53 -54 59 c-157 171 -179 407 -63 659 41 87 103 187 117 187
6 0 27 -26 47 -57z m-751 -763 c354 -84 553 -292 554 -577 l0 -53 -37 0 c-65
1 -186 27 -243 52 -150 67 -264 218 -329 433 -25 83 -41 165 -32 165 3 0 42
-9 87 -20z m1493 -27 c-48 -264 -184 -472 -359 -551 -57 -25 -178 -51 -242
-52 l-38 0 0 53 c1 280 191 484 535 573 120 31 114 32 104 -23z m-1397 -804
c287 -93 435 -263 455 -521 l6 -78 -54 0 c-293 1 -497 203 -583 579 l-15 63
50 -6 c27 -4 91 -20 141 -37z m1392 -21 c-86 -375 -290 -577 -583 -578 l-54 0
6 78 c17 218 125 372 332 472 80 39 237 88 287 89 l26 1 -14 -62z"/>
</g>
</svg>
