<?xml version="1.0" encoding="UTF-8"?>
<svg version="1.1" xmlns="http://www.w3.org/2000/svg" width="512" height="512">
<path d="M0 0 C0.94488785 -0.00705963 1.8897757 -0.01411926 2.86329651 -0.02139282 C41.91562467 -0.247035 41.91562467 -0.247035 58.76953125 3.203125 C59.7661377 3.39648438 60.76274414 3.58984375 61.78955078 3.7890625 C110.19101182 13.35276024 154.38512896 35.77050265 189.76953125 70.203125 C190.77330811 71.16822998 190.77330811 71.16822998 191.79736328 72.15283203 C200.73444332 80.76720099 209.13659789 89.47627109 216.49560547 99.48486328 C217.79203791 101.23348182 219.12241843 102.95141303 220.4609375 104.66796875 C228.32520366 114.8826848 234.71064045 125.84037758 240.76953125 137.203125 C241.43299561 138.44376709 241.43299561 138.44376709 242.10986328 139.70947266 C253.62657967 161.61261762 261.29758965 185.90372389 265.76953125 210.203125 C265.9303418 211.00379395 266.09115234 211.80446289 266.25683594 212.62939453 C271.74897535 240.70724953 271.50349817 274.19290435 265.76953125 302.203125 C265.57617188 303.19973145 265.3828125 304.19633789 265.18359375 305.22314453 C257.06481252 346.31194555 239.6953801 383.40611994 213.76953125 416.203125 C212.95742188 417.24082031 212.1453125 418.27851563 211.30859375 419.34765625 C198.63941514 434.91435994 184.08154161 449.48099025 167.76953125 461.203125 C166.59964669 462.0668777 165.43038875 462.93147969 164.26171875 463.796875 C143.63570695 478.94020242 121.02655998 491.0223415 96.76953125 499.203125 C95.5470166 499.61618896 95.5470166 499.61618896 94.29980469 500.03759766 C84.52895448 503.27568006 74.64734388 505.80797973 64.58203125 507.953125 C63.65737061 508.15188232 62.73270996 508.35063965 61.7800293 508.55541992 C45.57341948 511.84811527 29.63916105 512.57842778 13.14453125 512.515625 C11.61717346 512.51239227 11.61717346 512.51239227 10.05895996 512.50909424 C-4.56294299 512.45939896 -18.86180807 512.15373742 -33.23046875 509.203125 C-34.24302734 509.00444824 -35.25558594 508.80577148 -36.29882812 508.60107422 C-77.39146924 500.38377705 -114.32683292 482.94295303 -147.23046875 457.203125 C-147.76961914 456.78401855 -148.30876953 456.36491211 -148.86425781 455.93310547 C-165.1043318 443.17008625 -180.17509218 427.97886011 -192.23046875 411.203125 C-193.09422145 410.03324044 -193.95882344 408.8639825 -194.82421875 407.6953125 C-209.96754617 387.0693007 -222.04968525 364.46015373 -230.23046875 340.203125 C-230.64353271 338.98061035 -230.64353271 338.98061035 -231.06494141 337.73339844 C-234.30302381 327.96254823 -236.83532348 318.08093763 -238.98046875 308.015625 C-239.17922607 307.09096436 -239.3779834 306.16630371 -239.58276367 305.21362305 C-242.87545902 289.00701323 -243.60577153 273.0727548 -243.54296875 256.578125 C-243.5408136 255.55988647 -243.53865845 254.54164795 -243.53643799 253.49255371 C-243.48673484 238.8683366 -243.17254863 224.57507862 -240.23046875 210.203125 C-239.94042969 208.70821533 -239.94042969 208.70821533 -239.64453125 207.18310547 C-232.01587656 168.57481372 -216.30304558 132.42145621 -192.23046875 101.203125 C-191.26560547 99.95015625 -191.26560547 99.95015625 -190.28125 98.671875 C-176.19691174 80.74132256 -159.85363505 63.45372011 -141.23046875 50.203125 C-140.61284668 49.75710937 -139.99522461 49.31109375 -139.35888672 48.8515625 C-99.20602152 19.97940435 -49.95191371 0.24935871 0 0 Z M-147.37280273 97.11108398 C-153.44557214 103.12704047 -159.0306746 109.40896888 -164.23046875 116.203125 C-164.66069336 116.76225586 -165.09091797 117.32138672 -165.53417969 117.89746094 C-172.46486984 126.95310364 -178.59913899 136.29240546 -184.23046875 146.203125 C-184.56643066 146.77933594 -184.90239258 147.35554688 -185.24853516 147.94921875 C-201.69257813 176.23521759 -212.1562021 211.45171274 -212.46875 244.2578125 C-212.47849854 245.10867935 -212.48824707 245.9595462 -212.49829102 246.8361969 C-212.67241006 265.98570004 -212.39819989 284.41922583 -208.23046875 303.203125 C-208.0485498 304.04697754 -207.86663086 304.89083008 -207.67919922 305.76025391 C-196.70113993 355.23510021 -167.60291727 402.3047444 -127.23046875 433.203125 C-126.67133789 433.63334961 -126.11220703 434.06357422 -125.53613281 434.50683594 C-116.48049011 441.43752609 -107.14118829 447.57179524 -97.23046875 453.203125 C-96.65425781 453.53908691 -96.07804687 453.87504883 -95.484375 454.22119141 C-46.88005432 482.47727466 14.27906347 488.8433033 68.35717773 475.18481445 C115.62554876 462.49210699 159.81653706 435.34031252 189.76953125 396.203125 C190.19975586 395.64399414 190.62998047 395.08486328 191.07324219 394.50878906 C198.00232603 385.45524517 204.15151324 376.11958004 209.76953125 366.203125 C210.11081055 365.61096191 210.45208984 365.01879883 210.80371094 364.40869141 C222.01028442 344.86421277 229.29925729 323.36687192 234.01953125 301.390625 C234.17067383 300.68736084 234.32181641 299.98409668 234.47753906 299.25952148 C237.34027618 285.10900543 238.17654258 271.28149704 238.14453125 256.890625 C238.14398743 255.9682605 238.1434436 255.045896 238.1428833 254.09558105 C237.97846598 193.25590998 212.81957409 137.4055882 170.20703125 94.390625 C164.69714782 88.93271394 158.93199675 83.91946526 152.76953125 79.203125 C152.21040039 78.77290039 151.65126953 78.34267578 151.07519531 77.89941406 C142.02165142 70.97033022 132.68598629 64.82114301 122.76953125 59.203125 C122.17736816 58.8618457 121.58520508 58.52056641 120.97509766 58.16894531 C98.69744555 45.3952024 74.00351744 37.49561598 48.76953125 33.203125 C47.50882812 32.98785156 46.248125 32.77257813 44.94921875 32.55078125 C-25.93665868 21.87895135 -96.50605262 47.64937142 -147.37280273 97.11108398 Z " fill="#000000" transform="translate(243.23046875,-0.203125)"/>
<path d="M0 0 C4.45854962 3.49453889 6.70430459 6.87720236 7.77636719 12.42895508 C7.99629333 13.52971878 8.21621948 14.63048248 8.44281006 15.76460266 C8.7727597 17.53047981 8.7727597 17.53047981 9.109375 19.33203125 C9.3478717 20.54573898 9.58636841 21.75944672 9.83209229 23.00993347 C10.46058446 26.22198127 11.07650006 29.43610291 11.68634033 32.6517334 C12.31289193 35.93851146 12.95622505 39.2219527 13.59765625 42.50585938 C14.8511515 48.93853515 16.08811104 55.37422443 17.3125 61.8125 C18.88503714 58.86027117 19.97979193 55.9516906 20.96069336 52.75610352 C21.4264402 51.24917686 21.4264402 51.24917686 21.90159607 49.71180725 C22.2318428 48.63257492 22.56208954 47.55334259 22.90234375 46.44140625 C23.61115773 44.15294201 24.32014753 41.86453222 25.02929688 39.57617188 C26.14207355 35.97138507 27.25276872 32.36598263 28.36010742 28.75952148 C29.43096237 25.27668531 30.50990236 21.79643383 31.58984375 18.31640625 C31.91806625 17.23919815 32.24628876 16.16199005 32.5844574 15.05213928 C33.05493248 13.54048439 33.05493248 13.54048439 33.53491211 11.99829102 C33.80645615 11.11544937 34.07800018 10.23260773 34.35777283 9.32301331 C35.91779542 5.22083879 37.36383097 2.43775914 41.0625 0 C46.31708115 -1.91994311 49.72794956 -1.90458623 54.84716797 0.41210938 C58.77160027 2.76695062 59.86067998 5.2961167 61.3203125 9.65625 C61.55726837 10.34658325 61.79422424 11.0369165 62.0383606 11.74816895 C62.82947772 14.09348063 63.57481397 16.44985911 64.3125 18.8125 C64.72308655 20.10849121 64.72308655 20.10849121 65.14196777 21.43066406 C67.22555051 28.0378263 69.21404106 34.67177736 71.1875 41.3125 C71.7859539 43.31134901 72.38490922 45.31004797 72.984375 47.30859375 C74.4328523 52.14152399 75.87458972 56.97641582 77.3125 61.8125 C77.6425 61.8125 77.9725 61.8125 78.3125 61.8125 C78.50255867 60.79891922 78.50255867 60.79891922 78.69645691 59.76486206 C80.02122052 52.72004786 81.37187957 45.68055098 82.73754883 38.64355469 C83.24564348 36.01839897 83.74289683 33.39183527 84.2355957 30.76367188 C84.94571102 26.98211117 85.67949435 23.20579915 86.41796875 19.4296875 C86.6327739 18.25759735 86.84757904 17.0855072 87.06889343 15.87789917 C88.34602206 9.48391947 89.49834457 5.31654259 94.3125 0.8125 C98.15110435 -1.63994167 101.78108586 -1.41230483 106.16015625 -0.79296875 C110.44556867 0.41254654 112.41880489 3.39071232 114.6875 7 C116.29249793 14.22249069 113.9423026 22.41917893 112.51831055 29.57324219 C112.2497525 30.95085976 112.2497525 30.95085976 111.97576904 32.35630798 C111.38880985 35.35838402 110.79464197 38.35896697 110.19921875 41.359375 C109.78421974 43.46062718 109.36924723 45.56188459 108.95429993 47.66314697 C108.08621452 52.05139096 107.21381696 56.43875476 106.33911133 60.82568359 C105.22046466 66.44083319 104.11880733 72.05917466 103.02109051 77.67844772 C102.17139204 82.01258 101.30962525 86.34424867 100.44452858 90.67533112 C100.03303756 92.74605002 99.62600682 94.81766057 99.2235775 96.89015961 C98.66005389 99.78591926 98.07957578 102.67778921 97.49487305 105.56933594 C97.25230522 106.84589302 97.25230522 106.84589302 97.00483704 108.14823914 C95.76332863 114.15529552 93.97120839 118.4760593 89.25 122.625 C85.1463935 125.14011366 80.99356169 125.30103585 76.3125 124.8125 C71.5213894 123.06190189 69.13297846 121.01640705 66.3125 116.8125 C64.87529053 113.27781467 63.78763989 109.65153427 62.6875 106 C62.35556641 104.93080322 62.02363281 103.86160645 61.68164062 102.76000977 C60.95226331 100.40843709 60.22756019 98.055411 59.50683594 95.70117188 C58.21300286 91.47730701 56.89276537 87.26185243 55.5703125 83.046875 C53.1421883 75.30482682 50.72440178 67.55961783 48.3125 59.8125 C46.43036739 62.63569892 45.63495964 64.62523985 44.68017578 67.83129883 C44.37290558 68.85278519 44.06563538 69.87427155 43.74905396 70.92671204 C43.42194427 72.02984238 43.09483459 73.13297272 42.7578125 74.26953125 C42.05366067 76.60229664 41.34922466 78.93497628 40.64453125 81.26757812 C39.53924955 84.94653109 38.43709502 88.62635939 37.34033203 92.30786133 C36.27987532 95.86027217 35.20712242 99.40878937 34.1328125 102.95703125 C33.80975128 104.0540889 33.48669006 105.15114655 33.15383911 106.28144836 C30.99262212 113.3869082 28.96366349 119.73598044 22.3125 123.8125 C17.28391801 125.488694 12.97219589 125.41892735 8.0625 123.625 C-0.75356974 117.81440858 -1.15661143 107.48666389 -3.16682816 97.80531693 C-4.10896028 93.21142246 -5.03286053 88.61394354 -5.953125 84.015625 C-6.15020805 83.0326519 -6.34729111 82.0496788 -6.55034637 81.03691864 C-7.59020081 75.84774938 -8.62617174 70.65782145 -9.65917969 65.46728516 C-10.72358259 60.12353773 -11.80240525 54.78280558 -12.88434219 49.44258499 C-13.71788378 45.3143115 -14.54037338 41.18389121 -15.35991669 37.0528183 C-15.75283615 35.0824904 -16.14994342 33.11299264 -16.55139923 31.14438629 C-17.11146162 28.39304741 -17.65568408 25.63900755 -18.19628906 22.88378906 C-18.3634845 22.0804866 -18.53067993 21.27718414 -18.70294189 20.44953918 C-19.89083559 14.26049975 -20.33859545 8.52501395 -16.9375 2.9375 C-12.11387994 -1.61814117 -6.17199349 -2.72715992 0 0 Z " fill="#000000" transform="translate(300.6875,124.1875)"/>
<path d="M0 0 C12.67675832 10.30991945 21.5126283 23.45546771 24.38964844 39.76757812 C25.92499519 57.8513643 23.55085399 75.51779363 11.83886719 90.07617188 C0.673765 103.09745228 -13.55729838 111.32602001 -30.61035156 113.76757812 C-47.27489329 114.97803738 -63.64840508 112.00588174 -76.91503906 101.18164062 C-92.4197243 87.75171047 -99.61529597 72.41827826 -101.89160156 52.27929688 C-102.59319935 36.75644581 -96.25085645 20.78420135 -86.11035156 9.20507812 C-84.6320688 7.70420701 -83.13340298 6.22299848 -81.61035156 4.76757812 C-80.99804688 4.1359375 -80.38574219 3.50429687 -79.75488281 2.85351562 C-58.75884713 -17.47100505 -22.66830128 -17.34833002 0 0 Z M-68.11035156 28.70117188 C-74.39100919 37.35343199 -76.29655731 46.26631089 -75.15332031 56.83789062 C-74.3397489 61.22766442 -72.77357482 64.88467019 -70.61035156 68.76757812 C-70.05347656 69.77820313 -69.49660156 70.78882813 -68.92285156 71.83007812 C-62.25289251 80.30272881 -54.33458324 85.99389203 -43.61035156 87.76757812 C-33.39197236 88.75228765 -24.078965 86.63529469 -15.73535156 80.51757812 C-7.52864127 73.51293571 -2.43904504 65.19199523 -1.22753906 54.33789062 C-0.86496566 43.29148769 -3.41175151 34.35141358 -10.56738281 25.83789062 C-18.33593037 17.96536634 -27.05844051 13.78118259 -38.11035156 13.39257812 C-50.48799916 13.81097748 -60.30214848 19.1758871 -68.11035156 28.70117188 Z " fill="#000000" transform="translate(252.6103515625,135.232421875)"/>
<path d="M0 0 C5.09812387 3.3601271 7.30481251 7.58459712 9.40039062 13.20629883 C9.63529205 13.82862396 9.87019348 14.4509491 10.11221313 15.09213257 C10.88573906 17.14807143 11.6459768 19.20865879 12.40625 21.26953125 C12.95389758 22.73302695 13.50237681 24.19621168 14.05163574 25.65910339 C15.50192009 29.52849279 16.94104874 33.40193876 18.37780762 37.27636719 C19.79488484 41.09226163 21.2218986 44.90443172 22.6484375 48.71679688 C24.34111777 53.24109359 26.03135853 57.76623373 27.71020508 62.29568481 C30.2347076 69.10297644 32.77269285 75.90309481 35.39511871 82.67338657 C36.53146021 85.60746269 37.65883022 88.54495467 38.78611755 91.48251915 C39.31738303 92.85845172 39.85336021 94.23257589 40.39442444 95.60468483 C45.63991737 108.91106888 45.63991737 108.91106888 44.75 115.8125 C42.52863437 120.17295847 40.31432971 122.94527421 35.75 124.8125 C31.06254218 125.33332865 28.77498782 125.2855713 24.5 123.3125 C18.48333024 117.84280021 16.15425019 109.40890752 13.75 101.8125 C13.75 101.1525 13.75 100.4925 13.75 99.8125 C-0.11 100.1425 -13.97 100.4725 -28.25 100.8125 C-30.56 106.7525 -32.87 112.6925 -35.25 118.8125 C-43.02777778 125.29398148 -43.02777778 125.29398148 -50.25 124.8125 C-54.3438139 123.23795619 -57.25909625 121.7943075 -59.25 117.8125 C-60.7991757 111.10341928 -59.88867903 106.19502401 -57.375 99.8984375 C-57.05909912 99.06233444 -56.74319824 98.22623138 -56.41772461 97.36479187 C-55.37997307 94.63168886 -54.31538289 91.90993717 -53.25 89.1875 C-52.51784915 87.27595266 -51.78740386 85.36375128 -51.05859375 83.45092773 C-49.55392047 79.51195917 -48.03788744 75.57766203 -46.51171875 71.64697266 C-44.36198548 66.10975654 -42.23994016 60.5623001 -40.125 55.01171875 C-37.32776556 47.67853232 -34.50752953 40.354648 -31.66470337 33.03901672 C-29.99759401 28.74806651 -28.3476861 24.45109225 -26.7109375 20.1484375 C-26.01631509 18.34869184 -25.32108045 16.54918225 -24.625 14.75 C-24.20154297 13.61800171 -24.20154297 13.61800171 -23.76953125 12.46313477 C-21.66359696 7.09592722 -19.00227676 2.44898888 -13.9375 -0.5625 C-8.85856661 -1.7436473 -4.8458393 -1.77059513 0 0 Z M-8.25 45.8125 C-9.67842911 49.47702852 -11.10247676 53.14322569 -12.52246094 56.81103516 C-13.24441847 58.67310415 -13.96985238 60.53382407 -14.6953125 62.39453125 C-15.14648438 63.56113281 -15.59765625 64.72773438 -16.0625 65.9296875 C-16.48144531 67.00847168 -16.90039062 68.08725586 -17.33203125 69.19873047 C-18.36045434 71.66528758 -18.36045434 71.66528758 -18.25 73.8125 C-10.99 73.8125 -3.73 73.8125 3.75 73.8125 C2.36905225 69.98304525 0.98392309 66.1555479 -0.41259766 62.33178711 C-0.88653889 61.02999169 -1.35790579 59.72725609 -1.82666016 58.42358398 C-2.50008742 56.55208264 -3.18349272 54.68418113 -3.8671875 52.81640625 C-4.27565918 51.69049072 -4.68413086 50.5645752 -5.10498047 49.40454102 C-5.97816968 46.68281189 -5.97816968 46.68281189 -8.25 45.8125 Z " fill="#000000" transform="translate(256.25,274.1875)"/>
<path d="M0 0 C0.94140335 -0.01283524 1.8828067 -0.02567047 2.85273743 -0.03889465 C3.86837265 -0.04628159 4.88400787 -0.05366852 5.93041992 -0.0612793 C6.97735519 -0.06935104 8.02429047 -0.07742279 9.10295105 -0.08573914 C11.31959378 -0.09957323 13.53625775 -0.1102984 15.75292969 -0.11816406 C19.13737464 -0.13537845 22.52084314 -0.17927176 25.9050293 -0.22338867 C28.05931899 -0.23351569 30.21361699 -0.24203176 32.36791992 -0.2487793 C33.37748245 -0.26628738 34.38704498 -0.28379547 35.42720032 -0.30183411 C41.40499876 -0.28344185 44.78776471 0.21090344 49.34838867 4.17700195 C52.31475279 7.73663889 52.83267659 10.75445301 52.62963867 15.25512695 C51.99931873 19.56231324 50.01213488 21.64829839 46.69165039 24.29321289 C42.76412099 26.50621252 40.45862231 26.64163391 35.98120117 26.56762695 C35.30161346 26.56196716 34.62202576 26.55630737 33.92184448 26.55047607 C31.77161319 26.52825546 29.62310793 26.47809394 27.47338867 26.42700195 C26.00726707 26.4069181 24.5411191 26.38867063 23.07495117 26.37231445 C19.49824605 26.33185399 15.92522678 26.25355735 12.34838867 26.17700195 C12.34838867 33.76700195 12.34838867 41.35700195 12.34838867 49.17700195 C15.16756836 49.12479492 15.16756836 49.12479492 18.04370117 49.0715332 C20.52025472 49.04339055 22.99681795 49.0160909 25.47338867 48.98950195 C26.71088867 48.96436523 27.94838867 48.93922852 29.22338867 48.91333008 C30.4222168 48.90366211 31.62104492 48.89399414 32.85620117 48.8840332 C33.95593262 48.86832275 35.05566406 48.8526123 36.1887207 48.83642578 C41.21262063 49.3779449 44.39632446 51.09966614 47.72338867 54.86450195 C49.69405726 58.88163408 50.21542652 61.78926497 49.34838867 66.17700195 C47.06667189 70.65592749 44.83596973 72.98841093 40.34838867 75.17700195 C37.21044922 75.51757812 37.21044922 75.51757812 33.73510742 75.4699707 C32.48793945 75.46030273 31.24077148 75.45063477 29.95581055 75.44067383 C28.66223633 75.41553711 27.36866211 75.39040039 26.03588867 75.36450195 C24.06652344 75.34419922 24.06652344 75.34419922 22.05737305 75.32348633 C18.8206279 75.28817638 15.58471762 75.23885476 12.34838867 75.17700195 C12.36409912 76.35206299 12.37980957 77.52712402 12.39599609 78.73779297 C12.45051143 83.11923299 12.48481708 87.50064332 12.51318359 91.88232422 C12.52822113 93.7746282 12.54865652 95.66689762 12.57470703 97.55908203 C12.61131266 100.28727781 12.62816557 103.01501067 12.64135742 105.7434082 C12.65684128 106.58223038 12.67232513 107.42105255 12.6882782 108.28529358 C12.68980555 113.67974619 11.86660286 117.38410858 9.34838867 122.17700195 C6.2883141 125.19920431 2.92813215 126.10703291 -1.27661133 126.61450195 C-5.9904293 126.00345148 -8.32615626 124.40412182 -11.7618103 121.22335815 C-14.53384712 116.75483928 -14.22652176 112.78624206 -14.20092773 107.62280273 C-14.2111496 106.56042389 -14.22137146 105.49804504 -14.23190308 104.4034729 C-14.25969476 100.89285728 -14.25778173 97.38302699 -14.25317383 93.87231445 C-14.26094809 91.42999988 -14.2696175 88.987688 -14.27914429 86.54537964 C-14.29406884 81.42591589 -14.2934865 76.30672799 -14.28295898 71.18725586 C-14.27137281 64.63090404 -14.30522183 58.0756828 -14.35164833 51.5195179 C-14.38113283 46.47510186 -14.38286513 41.43095774 -14.37662888 36.38647079 C-14.37765494 33.96957028 -14.38812379 31.55265447 -14.40825272 29.13583755 C-14.43296706 25.75314461 -14.41941154 22.37264879 -14.39624023 18.98999023 C-14.41917145 17.49665161 -14.41917145 17.49665161 -14.44256592 15.97314453 C-14.35270644 10.02919501 -13.36758871 6.76444401 -9.23090172 2.42576408 C-6.33114428 0.13289426 -3.54818808 0.04218716 0 0 Z " fill="#000000" transform="translate(149.651611328125,272.822998046875)"/>
<path d="M0 0 C1.86730019 -0.01429802 1.86730019 -0.01429802 3.77232361 -0.02888489 C5.12759428 -0.02862345 6.48286497 -0.02768634 7.83813477 -0.02612305 C9.23291654 -0.03001196 10.62769713 -0.03434703 12.0224762 -0.03910828 C14.94357139 -0.0465628 17.8645457 -0.04628484 20.78564453 -0.04101562 C24.5226532 -0.03522197 28.25916608 -0.05215261 31.9960928 -0.0753603 C34.87607194 -0.09011671 37.7559322 -0.09096677 40.63594246 -0.08785057 C42.01340784 -0.08836283 43.39088004 -0.09358268 44.76830864 -0.10366249 C46.69706288 -0.11604506 48.62591753 -0.10728263 50.5546875 -0.09765625 C51.65070786 -0.09828568 52.74672821 -0.0989151 53.8759613 -0.0995636 C58.29489153 0.4579602 60.88878092 2.42445326 64.15454102 5.3371582 C66.6281386 9.6430503 66.85906704 13.43060094 65.84204102 18.2746582 C63.55718549 22.24987706 61.21548673 24.81684297 56.84204102 26.2746582 C55.43379209 26.35487819 54.02206871 26.38231797 52.61157227 26.37231445 C51.80913086 26.3690918 51.00668945 26.36586914 50.17993164 26.36254883 C48.92986328 26.34998047 48.92986328 26.34998047 47.65454102 26.3371582 C46.80956055 26.33264648 45.96458008 26.32813477 45.09399414 26.32348633 C43.00997947 26.31171223 40.92600125 26.2937771 38.84204102 26.2746582 C38.84870285 27.3741127 38.85536469 28.4735672 38.86222839 29.6063385 C38.9231027 39.97900841 38.96804404 50.35164195 38.99747753 60.72445011 C39.0131184 66.05693584 39.03432798 71.3892771 39.06835938 76.72167969 C39.10100891 81.86990716 39.11890591 87.01799586 39.12667274 92.16631889 C39.13220619 94.1282717 39.14301168 96.09021711 39.15923119 98.05211067 C39.18107972 100.8049256 39.18400483 103.5571706 39.18261719 106.31005859 C39.19340302 107.11710739 39.20418884 107.92415619 39.21530151 108.75566101 C39.18681663 113.9945836 38.26482535 117.60967396 35.84204102 122.2746582 C32.78196644 125.29686056 29.4217845 126.20468916 25.21704102 126.7121582 C20.46986777 126.09678389 18.11887368 124.51156107 14.72589111 121.22468567 C12.12929496 117.15852882 12.30723395 113.98858565 12.38793945 109.26171875 C12.38735535 108.36366013 12.38677124 107.4656015 12.38616943 106.54032898 C12.38894989 103.58028127 12.42004021 100.62124814 12.45141602 97.66137695 C12.45887854 95.60586599 12.46457142 93.5503479 12.46856689 91.49482727 C12.48382227 86.09089434 12.52310357 80.68739304 12.56738281 75.28363037 C12.6083374 69.76702717 12.62657833 64.25035406 12.64672852 58.73364258 C12.68959766 47.91379172 12.75784809 37.09426089 12.84204102 26.2746582 C11.54008789 26.32106445 10.23813477 26.3674707 8.89672852 26.4152832 C7.17018905 26.45281667 5.44362466 26.48921514 3.71704102 26.5246582 C2.86110352 26.55817383 2.00516602 26.59168945 1.12329102 26.6262207 C-4.50101226 26.71274845 -7.72397619 26.08608491 -12.15795898 22.2746582 C-15.28997316 17.93025144 -15.52971219 14.51592344 -14.73608398 9.3918457 C-13.69974314 5.59659748 -11.68881951 3.24615841 -8.40611267 1.16291809 C-5.50343984 0.01605351 -3.12095029 0.01312921 0 0 Z " fill="#000000" transform="translate(310.157958984375,272.725341796875)"/>
<path d="M0 0 C3.11531949 2.44173689 5.90977462 4.65984591 6.67243195 8.73641396 C6.80479553 11.10855648 6.80716127 13.44988484 6.76660156 15.82543945 C6.76718567 16.72349808 6.76776978 17.6215567 6.76837158 18.54682922 C6.76559113 21.50687694 6.7345008 24.46591006 6.703125 27.42578125 C6.69566248 29.48129221 6.6899696 31.5368103 6.68597412 33.59233093 C6.67071875 38.99626386 6.63143744 44.39976516 6.5871582 49.80352783 C6.54620362 55.32013104 6.52796268 60.83680414 6.5078125 66.35351562 C6.46494336 77.17336648 6.39669293 87.99289731 6.3125 98.8125 C7.06869629 98.79678955 7.82489258 98.7810791 8.60400391 98.76489258 C12.04842576 98.70231953 15.49272774 98.66343795 18.9375 98.625 C20.12730469 98.59986328 21.31710938 98.57472656 22.54296875 98.54882812 C33.57822627 98.4563539 33.57822627 98.4563539 38.3125 101.8125 C41.71992294 105.56066523 41.87965484 109.49695522 41.734375 114.37109375 C41.03321026 118.42876006 39.34036468 120.05989574 36.3125 122.8125 C33.48322675 124.49881821 31.39432655 125.0681066 28.11401367 125.10302734 C26.88705025 125.1221669 26.88705025 125.1221669 25.63529968 125.14169312 C24.75920547 125.14391876 23.88311127 125.14614441 22.98046875 125.1484375 C22.07049637 125.1550943 21.16052399 125.1617511 20.22297668 125.16860962 C18.29898089 125.17872545 16.37495009 125.18342697 14.45092773 125.18310547 C11.52072639 125.18746913 8.5920434 125.22377326 5.66210938 125.26171875 C3.78906763 125.26758919 1.91601875 125.27155706 0.04296875 125.2734375 C-0.82705276 125.28780853 -1.69707428 125.30217957 -2.59346008 125.31698608 C-8.44483925 125.27347188 -12.02383197 124.46046232 -16.6875 120.8125 C-19.88526796 115.04044795 -20.11791847 110.09397617 -20.07568359 103.58203125 C-20.08094055 102.57788177 -20.08619751 101.5737323 -20.09161377 100.53915405 C-20.10477056 97.23427577 -20.09609076 93.92988282 -20.0859375 90.625 C-20.08795947 88.32006742 -20.09087193 86.01513547 -20.09463501 83.71020508 C-20.09905252 78.8851918 -20.09264558 74.06034541 -20.07861328 69.23535156 C-20.06152195 63.05826024 -20.07136617 56.88156001 -20.08933067 50.70448303 C-20.10018386 45.94662543 -20.09671507 41.18886017 -20.0889473 36.43099976 C-20.08694955 34.15367588 -20.0893896 31.87634355 -20.09638596 29.59902954 C-20.10402549 26.41345081 -20.0923606 23.2285008 -20.07568359 20.04296875 C-20.08175629 19.10665619 -20.08782898 18.17034363 -20.09408569 17.20565796 C-20.04031233 11.64632463 -19.33272162 7.73328899 -16.6875 2.8125 C-11.97623778 -1.60430833 -5.96011391 -2.6335387 0 0 Z " fill="#000000" transform="translate(115.6875,124.1875)"/>
</svg>
