<?xml version="1.0" encoding="UTF-8"?>
<svg version="1.1" xmlns="http://www.w3.org/2000/svg" width="512" height="512">
<path d="M0 0 C4.59548981 -0.18109203 9.16187266 -0.1123065 13.75341797 0.10058594 C15.11974365 0.16221924 15.11974365 0.16221924 16.51367188 0.22509766 C41.73647524 1.49292124 65.84509434 5.97731269 89.75341797 14.10058594 C90.827771 14.45757568 90.827771 14.45757568 91.92382812 14.82177734 C118.87096027 23.86976741 143.58447583 38.45793129 165.75341797 56.10058594 C166.78853516 56.91140625 167.82365234 57.72222656 168.89013672 58.55761719 C184.46811056 71.22344739 199.01612105 85.79417925 210.75341797 102.10058594 C211.60518598 103.24723465 212.4580726 104.39305319 213.31201172 105.53808594 C219.3594493 113.72968795 224.74440209 122.23961992 229.75341797 131.10058594 C230.15560547 131.80779785 230.55779297 132.51500977 230.97216797 133.24365234 C243.99759207 156.37904429 252.74643258 181.55021003 258.06591797 207.53808594 C258.21327393 208.25697998 258.36062988 208.97587402 258.51245117 209.71655273 C261.25283823 224.13448837 262.13331404 238.45563651 262.06591797 253.10058594 C262.06376282 253.95053131 262.06160767 254.80047668 262.05938721 255.67617798 C261.77981207 324.76113283 235.96731116 391.66872735 187.19091797 440.91308594 C181.68362617 446.37561624 175.87460262 451.33295902 169.75341797 456.10058594 C168.81755859 456.865 167.88169922 457.62941406 166.91748047 458.41699219 C143.96561971 476.79618146 117.44926006 489.62582479 89.75341797 499.10058594 C88.62009033 499.49068848 88.62009033 499.49068848 87.46386719 499.88867188 C22.51056683 521.77758496 -52.20621107 514.3857436 -113.25708008 484.66894531 C-132.68048242 475.00964131 -149.97141452 463.41095527 -166.24658203 449.10058594 C-167.59236328 447.92302734 -167.59236328 447.92302734 -168.96533203 446.72167969 C-178.25157716 438.4815702 -186.55819511 429.85392812 -194.24658203 420.10058594 C-195.05095703 419.1015625 -195.85533203 418.10253906 -196.68408203 417.07324219 C-202.75307621 409.45307119 -208.05046209 401.47453617 -213.04394531 393.11376953 C-213.82234304 391.81075133 -214.6067969 390.51132389 -215.3984375 389.21630859 C-249.04504927 334.0241875 -259.07889026 261.30349001 -244.55908203 198.66308594 C-233.53718791 153.86341102 -212.30733254 113.38822366 -180.24658203 80.10058594 C-179.61445801 79.44123047 -178.98233398 78.781875 -178.33105469 78.10253906 C-169.18632981 68.61399502 -159.90375261 59.85566986 -149.24658203 52.10058594 C-148.60285645 51.62314941 -147.95913086 51.14571289 -147.29589844 50.65380859 C-136.42714354 42.60878602 -125.15729409 35.50158085 -113.24658203 29.10058594 C-112.0811084 28.47071777 -112.0811084 28.47071777 -110.89208984 27.828125 C-76.61083249 9.62908204 -38.50048808 1.72377756 0 0 Z M-143.91064453 89.91699219 C-145.95168061 91.82491722 -148.04015614 93.62356412 -150.18408203 95.41308594 C-185.16859702 126.06008992 -208.00379214 172.19345768 -217.24658203 217.10058594 C-217.42302246 217.92139648 -217.59946289 218.74220703 -217.78125 219.58789062 C-222.79951572 243.82875002 -222.34798371 271.92740746 -217.24658203 296.10058594 C-217.07497559 296.9489502 -216.90336914 297.79731445 -216.7265625 298.67138672 C-208.67032819 337.77184117 -190.26577524 373.17897743 -165.24658203 404.10058594 C-161.40530796 402.5211783 -159.00937035 400.08636671 -156.11425781 397.14770508 C-155.36705978 396.39371681 -155.36705978 396.39371681 -154.60476685 395.62449646 C-153.52659382 394.53538816 -152.45070698 393.44401288 -151.37686539 392.35063362 C-149.67454036 390.61807986 -147.96556744 388.89234477 -146.25460815 387.1683197 C-141.3922566 382.26627352 -136.54267668 377.35166191 -131.69628906 372.43383789 C-128.72840822 369.42314649 -125.75317598 366.41987616 -122.77355576 363.42080498 C-121.64236846 362.27907801 -120.51410387 361.13444734 -119.38888931 359.98683357 C-117.81198432 358.37859113 -116.22594228 356.77989274 -114.63769531 355.18286133 C-113.73930939 354.27178116 -112.84092346 353.36070099 -111.91531372 352.42201233 C-107.00947069 348.15460938 -102.79742072 346.57555488 -96.42626953 346.81152344 C-92.18916415 347.37343347 -89.27965835 348.96063966 -86.43408203 352.10058594 C-84.01371012 356.1770018 -83.56471239 360.46549587 -84.24658203 365.10058594 C-86.11424531 369.34257173 -88.14512407 372.36457352 -91.44262695 375.60546875 C-92.28327194 376.43943176 -93.12391693 377.27339478 -93.99003601 378.13262939 C-94.89325089 379.0140863 -95.79646576 379.89554321 -96.72705078 380.80371094 C-98.14454565 382.20747643 -99.56203545 383.6112471 -100.97921467 385.01533127 C-102.95568977 386.9700258 -104.93883079 388.91788505 -106.92218018 390.86560059 C-110.40797976 394.28934221 -113.88890831 397.71797487 -117.36116028 401.15545654 C-119.20907356 402.98350498 -121.06190836 404.80659369 -122.91996765 406.62432861 C-123.75115616 407.44568298 -124.58234467 408.26703735 -125.4387207 409.11328125 C-126.17579758 409.83686829 -126.91287445 410.56045532 -127.67228699 411.30596924 C-129.46640015 412.95328928 -129.46640015 412.95328928 -129.24658203 415.10058594 C-129.90658203 415.10058594 -130.56658203 415.10058594 -131.24658203 415.10058594 C-131.24658203 415.76058594 -131.24658203 416.42058594 -131.24658203 417.10058594 C-132.23658203 417.43058594 -133.22658203 417.76058594 -134.24658203 418.10058594 C-136.13113721 419.9603701 -136.13113721 419.9603701 -137.93408203 422.16308594 C-138.55669922 422.8965625 -139.17931641 423.63003906 -139.82080078 424.38574219 C-140.29130859 424.95164062 -140.76181641 425.51753906 -141.24658203 426.10058594 C-139.7000561 430.62284109 -136.00917674 432.89462587 -132.30908203 435.60058594 C-131.60396484 436.12104492 -130.89884766 436.64150391 -130.17236328 437.17773438 C-116.94541448 446.80311451 -103.13180246 455.30408468 -88.24658203 462.10058594 C-87.53630859 462.43010254 -86.82603516 462.75961914 -86.09423828 463.09912109 C-60.79153443 474.72213378 -32.5143957 482.05373693 -4.56689453 482.33886719 C-3.76484085 482.34866104 -2.96278717 482.3584549 -2.13642883 482.36854553 C38.96596063 482.76649192 76.25965565 475.54182614 112.75341797 456.10058594 C113.88650391 455.51019531 115.01958984 454.91980469 116.18701172 454.31152344 C131.17134625 446.16974629 144.92907824 435.67780428 157.08300781 423.73583984 C158.92087286 421.93665538 160.78443542 420.1661432 162.64794922 418.39355469 C172.06650332 409.32638034 180.16085567 399.73121004 187.75341797 389.10058594 C188.18283691 388.51583496 188.61225586 387.93108398 189.0546875 387.32861328 C222.82495473 341.2102151 237.73099555 279.0230325 229.56591797 222.47558594 C229.0426065 219.33094526 228.42028519 216.21762094 227.75341797 213.10058594 C227.58181152 212.25512207 227.41020508 211.4096582 227.23339844 210.53857422 C221.28817099 181.67314017 209.9077533 154.14011432 192.75341797 130.10058594 C192.24214355 129.3795166 191.73086914 128.65844727 191.20410156 127.91552734 C189.63215842 125.71519187 188.04244302 123.52946876 186.44091797 121.35058594 C185.96138672 120.69437256 185.48185547 120.03815918 184.98779297 119.36206055 C184.52244141 118.74468018 184.05708984 118.1272998 183.57763672 117.49121094 C183.17633545 116.9552832 182.77503418 116.41935547 182.36157227 115.8671875 C180.87249587 114.23139627 179.35661469 112.89426674 177.65290833 111.49017334 C176.69607651 110.7016095 175.73924469 109.91304565 174.75341797 109.10058594 C174.06294876 109.79771698 173.37247955 110.49484802 172.66108704 111.21310425 C166.15127794 117.78374344 159.63355037 124.34643542 153.10799885 130.90144157 C149.75344708 134.27164533 146.40174153 137.64458105 143.05639648 141.02392578 C139.82750998 144.28542176 136.59133801 147.53952242 133.34999657 150.78863907 C132.11501279 152.02916345 130.88267139 153.27232424 129.65303993 154.51815414 C127.92951705 156.26347184 126.19681388 157.99915601 124.46166992 159.73291016 C123.95600494 160.24936096 123.45033997 160.76581177 122.92935181 161.2979126 C119.00581063 165.1876077 115.90381148 166.85714516 110.44091797 167.47558594 C105.84850237 167.00856062 102.49712645 165.80718599 98.75341797 163.10058594 C95.75942838 159.07741243 95.39151605 155.39973663 95.25732422 150.54199219 C96.5171323 144.34214924 100.71108604 139.77118692 105.07275391 135.44067383 C105.59027725 134.9227124 106.1078006 134.40475098 106.64100647 133.87109375 C108.33291444 132.18125575 110.03515447 130.50226176 111.73779297 128.82324219 C112.92100505 127.64563243 114.10355126 126.46735331 115.28546143 125.28843689 C118.38265904 122.20263787 121.48876197 119.12595899 124.59686279 116.05114746 C127.77300881 112.90581017 130.94057183 109.75185483 134.10888672 106.59863281 C140.31540349 100.42419214 146.53136304 94.25936816 152.75341797 88.10058594 C151.24556511 84.90002314 149.96087184 83.19185398 147.10498047 81.06933594 C146.35780762 80.5122998 145.61063477 79.95526367 144.84082031 79.38134766 C144.02822754 78.79369629 143.21563477 78.20604492 142.37841797 77.60058594 C141.52844238 76.98328613 140.6784668 76.36598633 139.80273438 75.72998047 C55.69089655 15.5309296 -54.74149161 15.53312379 -143.91064453 89.91699219 Z " fill="#000000" transform="translate(250.24658203125,-0.1005859375)"/>
<path d="M0 0 C6.29728562 3.37159019 12.43754575 7.01842931 18.57421875 10.671875 C24.35208475 14.10538983 30.17594407 17.45812772 36 20.8125 C37.093125 21.44333496 38.18625 22.07416992 39.3125 22.72412109 C44.51474671 25.7247782 49.72053737 28.71857143 54.93928528 31.69041443 C56.71448327 32.70182981 58.48841038 33.71543873 60.26196289 34.72973633 C62.48389198 35.9996137 64.70820419 37.26533382 66.93530273 38.52612305 C71.41537103 41.09099329 75.86336133 43.69259485 80.1171875 46.62109375 C80.71772949 47.03415771 81.31827148 47.44722168 81.93701172 47.87280273 C86.63051997 52.93217623 87.00678471 58.86248793 86.99487305 65.40600586 C87.01016052 66.6803801 87.01016052 66.6803801 87.02575684 67.98049927 C87.05576438 70.76701558 87.06513396 73.55318743 87.07421875 76.33984375 C87.09107452 78.2804121 87.10922597 80.2209696 87.12861633 82.16151428 C87.17602487 87.25282396 87.20589339 92.3440896 87.23205566 97.43554688 C87.26190736 102.63745824 87.30842186 107.83921801 87.35351562 113.04101562 C87.43944469 123.23559764 87.5068362 133.43021094 87.5625 143.625 C88.25665512 144.01244385 88.95081024 144.3998877 89.66600037 144.79907227 C92.88077621 146.59418183 96.09468736 148.39083429 99.30859375 150.1875 C100.39990601 150.79658203 101.49121826 151.40566406 102.61560059 152.03320312 C111.98544349 157.27352214 121.27165039 162.64817884 130.5234375 168.09375 C134.7368857 170.56947967 138.97320202 172.99975967 143.2265625 175.40625 C144.31831787 176.02886719 145.41007324 176.65148437 146.53491211 177.29296875 C148.62157619 178.48199808 150.71328536 179.66223309 152.81079102 180.83203125 C159.0409674 184.40095396 164.19161295 187.51233885 166.5625 194.625 C166.65863736 196.00519591 166.70160441 197.38949369 166.70967102 198.77301025 C166.72040398 200.0387664 166.72040398 200.0387664 166.73135376 201.33009338 C166.73404266 202.25273483 166.73673157 203.17537628 166.73950195 204.12597656 C166.74607315 205.10028122 166.75264435 206.07458588 166.75941467 207.07841492 C166.77914891 210.30748571 166.79081065 213.53650999 166.80078125 216.765625 C166.80485678 217.86842552 166.8089323 218.97122604 166.81313133 220.10744476 C166.83399269 225.94451205 166.8482941 231.78155583 166.85766602 237.61865234 C166.86872999 243.64567567 166.90312992 249.67232976 166.94283772 255.69922256 C166.96899079 260.33525272 166.97735672 264.97119473 166.98094749 269.60729218 C166.98581688 271.82881921 166.99744081 274.05034221 167.01598549 276.27179718 C167.04034817 279.38364367 167.03941683 282.49453252 167.0324707 285.60644531 C167.05168579 286.9782621 167.05168579 286.9782621 167.07128906 288.37779236 C167.02314024 294.30722058 165.98007529 297.74761586 162.5625 302.625 C160.65795898 304.35961914 160.65795898 304.35961914 158.62109375 305.59765625 C157.43555908 306.32879639 157.43555908 306.32879639 156.22607422 307.07470703 C154.90760498 307.84210205 154.90760498 307.84210205 153.5625 308.625 C152.5945752 309.19460449 151.62665039 309.76420898 150.62939453 310.35107422 C147.89707354 311.93721508 145.15502376 313.50415526 142.40408325 315.05773926 C139.94317976 316.44756698 137.4864849 317.8447614 135.02952576 319.24154663 C133.75707251 319.96490238 132.48441732 320.68790302 131.21156311 321.41055298 C124.83144667 325.0344391 118.47712822 328.70227332 112.125 332.375 C109.99749676 333.60303945 107.86989412 334.8309067 105.7421875 336.05859375 C102.65210251 337.84163399 99.56228543 339.62512404 96.47363281 341.41064453 C93.56760861 343.08950373 90.65913484 344.76403826 87.75 346.4375 C86.89027588 346.93540039 86.03055176 347.43330078 85.14477539 347.94628906 C82.96366728 349.19818204 80.7697073 350.41989949 78.5625 351.625 C77.73363281 352.08261719 76.90476562 352.54023438 76.05078125 353.01171875 C67.09784478 355.21832946 60.05020673 350.6087415 52.5625 346.1875 C51.45382568 345.5493335 50.34515137 344.91116699 49.20288086 344.25366211 C45.97984561 342.39330978 42.76952919 340.51277756 39.5625 338.625 C38.06399266 337.74967366 36.56532119 336.87462818 35.06640625 336 C32.41519023 334.44774535 29.77072522 332.8845905 27.12890625 331.31640625 C22.4344556 328.53779608 17.70819326 325.81519641 12.98071289 323.09326172 C10.71442321 321.78829583 8.44927189 320.48135087 6.18530273 319.17236328 C1.22466535 316.30423816 -3.73989863 313.44728864 -8.7421875 310.65234375 C-9.52464844 310.20890625 -10.30710937 309.76546875 -11.11328125 309.30859375 C-12.52358812 308.50950336 -13.93983348 307.72075262 -15.36328125 306.9453125 C-20.10723422 304.23307328 -23.15419174 301.14311581 -25.04954529 295.94711304 C-25.63214468 292.4599492 -25.40828833 289.01491187 -25.26196289 285.49853516 C-25.20257751 283.8053526 -25.14454057 282.11212237 -25.08766174 280.41885376 C-25.05703707 279.52266956 -25.02641239 278.62648537 -24.9948597 277.70314407 C-24.81956554 271.93112734 -24.74743301 266.1568197 -24.66729069 260.38282204 C-24.59140495 255.3192105 -24.47220096 250.2642447 -24.25463867 245.20458984 C-22.3907725 223.97688627 -22.3907725 223.97688627 -28.66125488 204.50088501 C-34.22045248 199.57647021 -40.51755838 196.9595332 -47.50521851 194.64306641 C-51.3824949 193.29690477 -54.6698141 191.38054337 -58.1328125 189.21484375 C-60.27596321 187.99725772 -62.41919036 186.77980624 -64.5625 185.5625 C-66.91113889 184.21916216 -69.25820476 182.87308227 -71.60546875 181.52734375 C-76.0306909 178.99193629 -80.47120158 176.48731225 -84.92578125 174.00390625 C-86.90923631 172.87827726 -88.89232979 171.75201083 -90.875 170.625 C-92.22392334 169.88817993 -92.22392334 169.88817993 -93.60009766 169.13647461 C-94.43202637 168.65831299 -95.26395508 168.18015137 -96.12109375 167.6875 C-96.83837646 167.28660156 -97.55565918 166.88570312 -98.29467773 166.47265625 C-102.05110827 163.23366043 -104.92184229 159.22579967 -105.89890194 154.29784775 C-106.07009984 151.69994176 -106.09083484 149.14381317 -106.05273438 146.54052734 C-106.06105789 145.07556572 -106.06105789 145.07556572 -106.06954956 143.58100891 C-106.08129772 140.37380908 -106.05712224 137.16803711 -106.03125 133.9609375 C-106.0295378 131.72230087 -106.02960569 129.48366223 -106.03137207 127.24502563 C-106.02972166 122.56289379 -106.0110715 117.88124238 -105.97949219 113.19921875 C-105.93977005 107.20250065 -105.93545415 101.20640993 -105.94295502 95.20958519 C-105.94602619 90.59071115 -105.93389959 85.97197774 -105.91682434 81.35313797 C-105.90980224 79.1419831 -105.90666885 76.93081231 -105.90751648 74.71964645 C-105.90571602 71.62969959 -105.88431362 68.54050085 -105.85742188 65.45068359 C-105.86035248 64.54039902 -105.86328308 63.63011444 -105.86630249 62.69224548 C-105.78027524 56.27596402 -104.71301182 51.92282076 -100.046875 47.2109375 C-94.98688558 43.3088475 -89.2493092 40.3637884 -83.6875 37.25 C-82.4346559 36.54246062 -81.18222113 35.83419601 -79.93017578 35.12524414 C-78.00110515 34.03303278 -76.07180949 32.94124485 -74.14126587 31.85163879 C-67.84160906 28.29569497 -61.57469611 24.68396473 -55.3125 21.0625 C-54.26602295 20.45857422 -53.2195459 19.85464844 -52.14135742 19.23242188 C-47.08450017 16.31376655 -42.03059515 13.39011935 -36.98162842 10.45783997 C-34.56989862 9.05763322 -32.15699375 7.65945895 -29.74395752 6.26150513 C-28.03565066 5.27067758 -26.32908512 4.27684971 -24.62255859 3.28295898 C-23.59340332 2.68684814 -22.56424805 2.0907373 -21.50390625 1.4765625 C-20.59584229 0.94885254 -19.68777832 0.42114258 -18.75219727 -0.12255859 C-12.08940684 -3.72767566 -6.5942062 -3.21558132 0 0 Z M-16.6796875 34.484375 C-17.73687988 35.10046631 -18.79407227 35.71655762 -19.88330078 36.35131836 C-21.58075439 37.35304077 -21.58075439 37.35304077 -23.3125 38.375 C-24.47728364 39.05613554 -25.64248924 39.73655 -26.80810547 40.41625977 C-28.59034906 41.45577129 -30.37225587 42.49582335 -32.15274048 43.53834534 C-37.93188093 46.92205492 -43.74363883 50.24761109 -49.5625 53.5625 C-51.29428258 54.55076067 -53.02605464 55.53903978 -54.7578125 56.52734375 C-55.98432647 57.22664762 -57.21086817 57.92590287 -58.4375 58.625 C-55.6152454 61.67096238 -52.88270702 63.70112169 -49.24609375 65.69140625 C-48.22749268 66.25472656 -47.2088916 66.81804687 -46.15942383 67.3984375 C-45.07556396 67.98882812 -43.9917041 68.57921875 -42.875 69.1875 C-29.7698458 76.37600525 -29.7698458 76.37600525 -23.7734375 80.05859375 C-22.91951416 80.57800537 -22.06559082 81.09741699 -21.18579102 81.63256836 C-19.59806388 82.60538343 -18.01977965 83.59383422 -16.45288086 84.59985352 C-12.22210833 87.21208473 -12.22210833 87.21208473 -7.37109375 87.16796875 C-3.91377115 85.34953676 -0.52227641 83.46977597 2.8125 81.4375 C4.29477912 80.54945493 5.77791412 79.66283754 7.26171875 78.77734375 C8.08591309 78.28476074 8.91010742 77.79217773 9.75927734 77.28466797 C15.35217025 73.97335583 20.99190462 70.74226914 26.625 67.5 C27.80960341 66.81752164 28.9941744 66.134987 30.17871094 65.45239258 C32.97292325 63.84259327 35.76751712 62.23346091 38.5625 60.625 C37.29687607 56.82812822 36.18755361 56.57081004 32.734375 54.69140625 C31.71617676 54.13018066 30.69797852 53.56895508 29.64892578 52.99072266 C28.54790527 52.39565918 27.44688477 51.8005957 26.3125 51.1875 C24.03324393 49.93730981 21.75460877 48.68598702 19.4765625 47.43359375 C18.32317383 46.80179199 17.16978516 46.16999023 15.98144531 45.51904297 C12.74467864 43.72592416 9.53562394 41.89348717 6.3359375 40.03515625 C5.38106445 39.48077881 4.42619141 38.92640137 3.44238281 38.35522461 C1.63449906 37.30180067 -0.17093261 36.2441548 -1.97363281 35.18188477 C-2.78413086 34.71194092 -3.59462891 34.24199707 -4.4296875 33.7578125 C-5.13464355 33.34418457 -5.83959961 32.93055664 -6.56591797 32.50439453 C-10.67734173 30.57257241 -13.06937484 32.36386563 -16.6796875 34.484375 Z M-74.4375 86.625 C-74.4375 105.435 -74.4375 124.245 -74.4375 143.625 C-70.60125 145.831875 -66.765 148.03875 -62.8125 150.3125 C-52.84015983 156.05447718 -42.90849087 161.85870627 -33.03076172 167.76245117 C-31.74516357 168.52779175 -31.74516357 168.52779175 -30.43359375 169.30859375 C-29.30715454 169.98233032 -29.30715454 169.98233032 -28.15795898 170.66967773 C-26.61977245 171.70590889 -26.61977245 171.70590889 -25.4375 171.625 C-24.9239072 164.42120195 -24.53515531 157.22141988 -24.29763222 150.00292683 C-24.18339615 146.64576733 -24.01765046 143.31064494 -23.77783203 139.95874023 C-22.25388477 125.30520187 -22.25388477 125.30520187 -27.43722534 112.21640015 C-32.63760816 107.97617618 -38.49653788 105.31646546 -44.6739502 102.7928772 C-48.41503421 101.21189367 -51.78907201 99.20111742 -55.23828125 97.07421875 C-57.40818974 95.81916305 -59.57873354 94.56520493 -61.75 93.3125 C-62.88244141 92.65572266 -64.01488281 91.99894531 -65.18164062 91.32226562 C-66.25220703 90.70416016 -67.32277344 90.08605469 -68.42578125 89.44921875 C-69.36977783 88.90354248 -70.31377441 88.35786621 -71.28637695 87.7956543 C-73.17572055 86.5453322 -73.17572055 86.5453322 -74.4375 86.625 Z M49.83984375 89.1953125 C48.82341797 89.76378906 47.80699219 90.33226562 46.75976562 90.91796875 C45.14618164 91.82482422 45.14618164 91.82482422 43.5 92.75 C42.51322266 93.30042969 41.52644531 93.85085937 40.50976562 94.41796875 C38.88779969 95.32738896 37.2666277 96.2393424 35.67306519 97.19766235 C31.68846525 99.56488658 27.67445666 101.435323 23.38916016 103.20849609 C11.77146271 108.12610223 11.77146271 108.12610223 4.31564331 117.69134521 C2.57013394 126.4345001 3.37167467 135.1778564 4.0625 144 C4.19680386 146.68145442 4.29416963 149.36382673 4.390625 152.046875 C4.65365872 158.58439751 5.05353737 165.10225726 5.5625 171.625 C14.64557587 167.1638028 14.64557587 167.1638028 23.4921875 162.2578125 C24.47316406 161.68160156 25.45414063 161.10539062 26.46484375 160.51171875 C27.44582031 159.93035156 28.42679688 159.34898437 29.4375 158.75 C38.10865394 153.63918741 46.8218864 148.61963634 55.5625 143.625 C55.5625 124.815 55.5625 106.005 55.5625 86.625 C53.53460197 86.625 51.54512699 88.24156499 49.83984375 89.1953125 Z M65.08203125 172.9765625 C64.17590088 173.49178467 63.26977051 174.00700684 62.33618164 174.5378418 C60.87039673 175.38536011 60.87039673 175.38536011 59.375 176.25 C57.86764282 177.11395386 57.86764282 177.11395386 56.32983398 177.99536133 C54.1875177 179.22543346 52.04703008 180.45869487 49.90820312 181.69482422 C46.51316899 183.65345964 43.10879687 185.59508762 39.703125 187.53515625 C37.50996416 188.79348248 35.31724285 190.05257514 33.125 191.3125 C32.07094971 191.9120752 31.01689941 192.51165039 29.9309082 193.12939453 C28.96499756 193.68868652 27.99908691 194.24797852 27.00390625 194.82421875 C25.71528687 195.56418091 25.71528687 195.56418091 24.40063477 196.3190918 C23.49075806 196.96551636 23.49075806 196.96551636 22.5625 197.625 C22.5625 198.285 22.5625 198.945 22.5625 199.625 C24.21218808 200.57821413 25.86194265 201.53131321 27.51171875 202.484375 C28.57825684 203.10054687 29.64479492 203.71671875 30.74365234 204.3515625 C33.09291674 205.70803668 35.44359975 207.06200759 37.79541016 208.4140625 C43.48980901 211.68909753 49.1736859 214.97764005 54.82421875 218.328125 C56.25084839 219.16585449 56.25084839 219.16585449 57.70629883 220.02050781 C59.49709437 221.07254217 61.28234198 222.1340906 63.0612793 223.20605469 C63.863479 223.67430664 64.66567871 224.14255859 65.4921875 224.625 C66.18554199 225.0375 66.87889648 225.45 67.59326172 225.875 C70.05981019 226.81440453 71.11744462 226.54288388 73.5625 225.625 C76.18406539 224.27601064 78.74859901 222.88886068 81.3125 221.4375 C82.08021729 221.00695312 82.84793457 220.57640625 83.63891602 220.1328125 C101.36237365 210.30850213 101.36237365 210.30850213 118.5625 199.625 C117.11670826 195.28762479 113.84428441 194.33110773 110 192.3125 C108.37099829 191.43357488 106.74347478 190.55190632 105.1171875 189.66796875 C104.23256836 189.18763184 103.34794922 188.70729492 102.43652344 188.21240234 C97.11437883 185.27283521 91.87240431 182.19538661 86.625 179.125 C85.57691162 178.51358154 84.52882324 177.90216309 83.44897461 177.2722168 C75.97979963 172.90319975 75.97979963 172.90319975 72.5625 170.625 C69.15575559 170.625 67.99780275 171.30610226 65.08203125 172.9765625 Z M5.5625 225.625 C5.5625 244.435 5.5625 263.245 5.5625 282.625 C14.87629739 287.9472253 14.87629739 287.9472253 24.19091797 293.26800537 C29.48517947 296.29200258 34.77672755 299.32055077 40.0625 302.359375 C41.02969971 302.91463867 41.99689941 303.46990234 42.9934082 304.04199219 C44.80544081 305.0825749 46.61650639 306.12484369 48.42651367 307.16894531 C49.62884644 307.85875488 49.62884644 307.85875488 50.85546875 308.5625 C51.5518042 308.96339844 52.24813965 309.36429687 52.96557617 309.77734375 C54.40838788 310.70314152 54.40838788 310.70314152 55.5625 310.625 C55.5625 291.815 55.5625 273.005 55.5625 253.625 C51.9325 251.60375 48.3025 249.5825 44.5625 247.5 C34.27193155 241.75649073 24.06735017 235.88438439 13.91796875 229.89404297 C12.96535156 229.33346191 12.01273437 228.77288086 11.03125 228.1953125 C10.19013672 227.69789551 9.34902344 227.20047852 8.48242188 226.68798828 C6.7824482 225.54427055 6.7824482 225.54427055 5.5625 225.625 Z M129.55078125 228.44921875 C128.48021484 229.06732422 127.40964844 229.68542969 126.30664062 230.32226562 C125.17419922 230.97904297 124.04175781 231.63582031 122.875 232.3125 C121.82376953 232.91900391 120.77253906 233.52550781 119.68945312 234.15039062 C117.99507193 235.13040558 116.3012867 236.11244668 114.63519287 237.13981628 C110.79767366 239.47553577 106.9697079 241.31460082 102.80761719 243.01489258 C96.68671552 245.71635551 90.90643044 248.39288637 86.5625 253.625 C83.06423291 262.89229298 84.49560389 273.266976 85.1875 282.9375 C85.31057052 285.6236479 85.39985016 288.31056422 85.48828125 290.99804688 C85.72952204 297.54996604 86.0962641 304.08544321 86.5625 310.625 C94.00881957 306.5717415 101.43003462 302.48100349 108.8125 298.3125 C109.73417969 297.79494141 110.65585937 297.27738281 111.60546875 296.74414062 C113.5382914 295.65311659 115.45277328 294.52907619 117.34936523 293.3762207 C119.85401232 292.01113951 121.94409788 291.11645394 124.60571289 290.22338867 C129.10585162 288.50671666 132.85585313 286.75048671 135.5625 282.625 C137.94626575 273.91368393 137.04380245 264.50657671 136.59246826 255.58398438 C136.43797184 252.20647851 136.37030225 248.82729872 136.29492188 245.44726562 C136.1300401 238.83546771 135.87951622 232.23115804 135.5625 225.625 C133.46331324 225.625 131.2878085 227.4451319 129.55078125 228.44921875 Z " fill="#000000" transform="translate(225.4375,81.375)"/>
</svg>
